<svg xmlns="http://www.w3.org/2000/svg" viewBox="0 0 840 260" role="img" aria-labelledby="title desc">
  <title id="title">GPARRAT</title>
  <desc id="desc">Logo monocromático de GPARRAT con una G estilizada y el texto Mantenimiento y reparación.</desc>
  <rect x="14" y="14" width="812" height="232" rx="18" fill="#ffffff" stroke="#111111" stroke-width="6"/>
  <g transform="translate(44 43)">
    <circle cx="78" cy="78" r="76" fill="none" stroke="#111111" stroke-width="12"/>
    <path d="M124 76c0-32-25-54-58-54-35 0-60 24-60 58s24 58 60 58c27 0 49-11 60-34H91V87h58v50h-22l-5-18c-16 14-38 22-64 22-52 0-90-35-90-86S66 10 126 10c37 0 70 15 87 39l-28 16c-11-15-32-25-55-25-31 0-53 19-53 47 0 29 22 48 53 48 26 0 44-10 53-28l-19-3V76h-40z" fill="#111111"/>
  </g>
  <g transform="translate(260 68)" fill="#111111">
    <text x="0" y="42" font-family="Arial, Helvetica, sans-serif" font-size="54" font-weight="700" letter-spacing="11">GPARRAT</text>
    <text x="3" y="102" font-family="Georgia, 'Times New Roman', serif" font-size="26" font-style="italic" letter-spacing="1">Mantenimiento y reparación</text>
  </g>
</svg>